<svg xmlns="http://www.w3.org/2000/svg" width="103.275" height="100"><path data-name="Path 62" d="M97.75 50.001c0 27.529-21.91 50-48.877 50S-.004 77.53-.004 50.001s21.911-50 48.877-50a48.24 48.24 0 0 1 28.2 9.1 2.3 2.3 0 0 1 .562 3.146 2.185 2.185 0 0 1-3.146.449 44.54 44.54 0 0 0-25.616-8.2c-24.494 0-44.381 20.449-44.381 45.505S24.38 95.506 48.873 95.506s44.383-20.449 44.383-45.505a2.247 2.247 0 1 1 4.494 0Zm4.832-38.426a2.172 2.172 0 0 0-3.146 0L51.684 60.563l-20.336-20.9a2.225 2.225 0 1 0-3.146 3.146l21.91 22.471a2.217 2.217 0 0 0 1.573.674 2.038 2.038 0 0 0 1.573-.674l49.439-50.45a2.42 2.42 0 0 0-.111-3.258Z" fill="#f8ac1d"/></svg>