<svg xmlns="http://www.w3.org/2000/svg">
    <!--add every svg paths and content in <g>tag</g> with id of it's name with viewBox attribute without SVG tag-->
    <!-- Wave SM -->
    <svg id="waves-sm" width="36.967" height="25.146"><g data-name="Group 1079" fill="none" stroke-width="3"><path data-name="Path 2814" d="M36.946 2.844c-.933 0-2.918 1.951-6.421 1.794s-4.046-2.422-7.59-2.422-4.866 2.422-9.353 2.422-5.3-2.546-7.8-3.064-4.315 1.27-5.787 1.27" /><path data-name="Path 2818" d="M36.946 9.178c-.933 0-2.918 1.951-6.421 1.794s-4.046-2.422-7.59-2.422-4.866 2.422-9.353 2.422-5.3-2.546-7.8-3.064-4.315 1.27-5.787 1.27" /><path data-name="Path 2819" d="M36.946 21.845c-.933 0-2.918 1.951-6.421 1.794s-4.046-2.422-7.59-2.422-4.866 2.422-9.353 2.422-5.3-2.546-7.8-3.064-4.315 1.27-5.787 1.27" /><path data-name="Path 2820" d="M36.946 15.511c-.933 0-2.918 1.951-6.421 1.794s-4.046-2.422-7.59-2.422-4.866 2.422-9.353 2.422-5.3-2.546-7.8-3.064-4.315 1.27-5.787 1.27" /></g></svg>
    <!-- Wave LG -->
    <svg id="waves-lg"><g data-name="Group 1137" fill="none" stroke="#fff" stroke-width="13"><path data-name="Path 2814" d="M251.004 15.757c-6.338 0-19.823 13.256-43.619 12.19s-27.488-16.455-51.562-16.455-33.062 16.455-63.548 16.455-36.007-17.3-52.959-20.814S10.004 15.757.004 15.757" /><path data-name="Path 2818" d="M251.004 58.786c-6.338 0-19.823 13.256-43.619 12.19s-27.488-16.455-51.562-16.455-33.062 16.455-63.548 16.455-36.007-17.3-52.959-20.814S10.004 58.786.004 58.786" /><path data-name="Path 2819" d="M251.004 144.843c-6.338 0-19.823 13.256-43.619 12.19s-27.488-16.455-51.562-16.455-33.062 16.455-63.548 16.455-36.007-17.3-52.959-20.814-29.312 8.624-39.312 8.624" /><path data-name="Path 2820" d="M251.004 101.814c-6.338 0-19.823 13.256-43.619 12.19s-27.488-16.455-51.562-16.455-33.062 16.455-63.548 16.455-36.007-17.3-52.959-20.814-29.312 8.624-39.312 8.624" /></g></svg>
    <!-- Wave MD -->
    <svg id="waves-md"><g data-name="Group 1080" fill="none" stroke="#000" stroke-width="3"><path data-name="Path 2814" d="M80.661 4.434c-2.037 0-6.37 4.26-14.017 3.917s-8.834-5.288-16.57-5.288-10.623 5.288-20.42 5.288-11.571-5.559-17.019-6.689S3.215 4.434 0 4.434" /><path data-name="Path 2818" d="M80.661 18.262c-2.037 0-6.37 4.26-14.017 3.917s-8.834-5.288-16.57-5.288-10.623 5.288-20.42 5.288-11.571-5.559-17.019-6.689S3.215 18.262 0 18.262" /><path data-name="Path 2819" d="M80.661 45.917c-2.037 0-6.37 4.26-14.017 3.917s-8.834-5.288-16.57-5.288-10.623 5.288-20.42 5.288-11.571-5.559-17.019-6.689S3.215 45.917 0 45.917" /><path data-name="Path 2820" d="M80.661 32.089c-2.037 0-6.37 4.26-14.017 3.917s-8.834-5.288-16.57-5.288-10.623 5.288-20.42 5.288-11.571-5.559-17.019-6.689S3.215 32.089 0 32.089" /></g></svg>
    <!-- Wave Pattern -->
    <svg id="wave-pattern" width="1920" height="37.814"><path data-name="Path 2815" d="M1920.004 0v18.056c-76.531 0-171.073-19.582-300.746-13.911s-171.91 33.571-405.106 33.571-301.907-26.544-486.065-26.544-212.405 24.824-394.426 26.544S48.483 18.056.004 18.056V0Z" /></svg>
    <!-- Users -->
    <svg id="users" width="24" height="22.096"><defs><clipPath id="a"><path data-name="Path 2833" d="M139.21 158h18.436v22.1H139.21Z" transform="translate(-139.21 -158)" /></clipPath><clipPath id="b"><path data-name="Path 2835" d="M387 199h11.443v20.018H387Z" transform="translate(-387 -199)" /></clipPath></defs><g data-name="Group 1090" clip-path="url(#a)"><path data-name="Path 2832" d="m16.405 17.202-3.821-1.911a1.051 1.051 0 0 1-.584-.946v-1.352c.092-.112.188-.239.288-.38a9.152 9.152 0 0 0 1.182-2.32 1.587 1.587 0 0 0 .931-1.447v-1.6a1.6 1.6 0 0 0-.4-1.05V4.069a3.586 3.586 0 0 0-.837-2.611 6.268 6.268 0 0 0-7.926 0 3.587 3.587 0 0 0-.837 2.611v2.133a1.6 1.6 0 0 0-.4 1.05v1.6a1.591 1.591 0 0 0 .6 1.244 8.4 8.4 0 0 0 1.4 2.9v1.323a1.056 1.056 0 0 1-.551.928l-3.569 1.947a3.606 3.606 0 0 0-1.88 3.168v1.7h18.4v-1.617a3.588 3.588 0 0 0-1.994-3.227" fill-rule="evenodd" /></g><g data-name="Group 1091" transform="translate(12.557 2.078)" clip-path="url(#b)"><path data-name="Path 2834" d="M9.629 15.581 5.74 13.897a.793.793 0 0 1-.282-.308h2.61s.151.015.385.015a4.2 4.2 0 0 0 1.6-.283 1.174 1.174 0 0 0 .668-.763 1.187 1.187 0 0 0-.17-1.01 13.245 13.245 0 0 1-2.542-6.649c0-.048-.159-4.833-4.884-4.872a5.9 5.9 0 0 0-1.349.165 4.328 4.328 0 0 1 .266 1.83v1.893a2.184 2.184 0 0 1 .4 1.256v1.6a2.2 2.2 0 0 1-1.043 1.865 9.71 9.71 0 0 1-1.18 2.248c-.06.085-.119.165-.177.242v1.144a.449.449 0 0 0 .252.409l3.822 1.911a4.186 4.186 0 0 1 2.326 3.764v1.617h5v-1.48a3.234 3.234 0 0 0-1.813-2.911" fill-rule="evenodd" /></g></svg>
    <!-- Captain -->
    <svg id="captain" width="100" height="100"><defs><clipPath id="a"><path data-name="Path 2888" d="M139.21 139.21h100v100h-100Z" transform="translate(-139.21 -139.21)" /></clipPath></defs><g data-name="Group 1163" clip-path="url(#a)"><path data-name="Path 2887" d="M100 50a50 50 0 1 0-52.525 49.871c.146.008.292.033.441.042v-.023c.7.033 1.38.108 2.084.108s1.387-.075 2.084-.1v.012c.1 0 .2-.021.308-.029a49.753 49.753 0 0 0 31.771-13.467c.087-.046.134-.134.213-.191A49.838 49.838 0 0 0 100 50ZM50 95.834c-.7 0-1.387-.075-2.083-.1v-5.888a8.316 8.316 0 0 1-4.166 1.825c-6.434 0-15.325-9.816-17.729-12.617l-7.838 2.725c-.284.1-.554.225-.833.333a45.83 45.83 0 1 1 65.3.006c-.284-.108-.558-.238-.845-.337l-7.829-2.721c-2.417 2.808-11.3 12.612-17.725 12.612a8.294 8.294 0 0 1-4.167-1.829v5.888c-.7.033-1.379.108-2.084.108Z" /></g><path data-name="Path 2889" d="M39.583 54.166h4.167a2.084 2.084 0 1 0 0-4.167h-4.167a2.084 2.084 0 0 0 0 4.167Z" /><path data-name="Path 2890" d="M56.25 54.166h4.167a2.084 2.084 0 1 0 0-4.167H56.25a2.084 2.084 0 1 0 0 4.167Z" /><path data-name="Path 2891" d="M78.783 33.333a6.175 6.175 0 0 0 .384-2.084v-4.891a6.266 6.266 0 0 0-3.983-5.933 41.806 41.806 0 0 1-7.575-4.454C62.3 12.391 56.276 8.333 50 8.333s-12.3 4.058-17.612 7.638a41.648 41.648 0 0 1-7.575 4.454 6.271 6.271 0 0 0-3.979 5.933v4.891a6.2 6.2 0 0 0 .383 2.084Zm-36.52-9.792a2.1 2.1 0 0 1 2.925-.054 6.313 6.313 0 0 0 2.729 1.279v-3.933a2.084 2.084 0 0 1 0-4.167 2.084 2.084 0 1 1 4.167 0 2.084 2.084 0 0 1 0 4.167v3.934a6.413 6.413 0 0 0 2.733-1.275 2.083 2.083 0 0 1 2.891 3 12.428 12.428 0 0 1-15.416 0 2.082 2.082 0 0 1-.029-2.946Z" /><path data-name="Path 2892" d="M63.975 68.142a2.083 2.083 0 0 0-2.945-2.945c-1.4 1.387-2.729 1.013-6.016-.837-1.7-.959-3.3-1.859-5.013-1.859s-3.317.9-5.012 1.854c-3.288 1.85-4.621 2.225-6.016.837a2.083 2.083 0 1 0-2.945 2.945 6.422 6.422 0 0 0 4.683 2.075c2.362 0 4.608-1.267 6.325-2.23a9.587 9.587 0 0 1 2.966-1.316 9.562 9.562 0 0 1 2.967 1.316c1.716.967 3.963 2.23 6.325 2.23a6.423 6.423 0 0 0 4.683-2.07Z" /><path data-name="Path 2893" d="M54.734 82.717c.362-.092.721-.2 1.025-.3 7.058-2.088 13.054-7.921 16.384-15.829a4.041 4.041 0 0 0 .77.075c3.562 0 6.25-4.479 6.25-10.417 0-4.75-1.721-8.567-4.267-9.9a38.309 38.309 0 0 0-1.217-8.6c.067-.083.171-.167.238-.246H26.084c.066.079.167.162.238.242a37.941 37.941 0 0 0-1.225 8.583c-2.533 1.321-4.267 5.15-4.267 9.925 0 5.937 2.687 10.417 6.25 10.417a3.8 3.8 0 0 0 .771-.079c3.325 7.9 9.316 13.742 16.329 15.813.354.112.713.221 1.1.321.487.116.975.225 1.462.3a17.364 17.364 0 0 0 6.491 0c.5-.083.988-.187 1.5-.313Zm-7.308-3.8c-.4-.067-.784-.154-1.142-.242-.275-.071-.55-.15-.871-.258-6.425-1.9-11.837-7.671-14.483-15.446a2.084 2.084 0 0 0-3.459-.788 1.57 1.57 0 0 1-.4.317c-.52 0-2.084-2.221-2.084-6.25S26.549 50 27.15 50a2.085 2.085 0 0 0 2.084-2.084 38.135 38.135 0 0 1 .7-7.2c4.229 2.708 10.941 5.112 20.057 5.112s15.821-2.4 20.05-5.108a38.442 38.442 0 0 1 .7 7.192 2.154 2.154 0 0 0 2.163 2.084c.52 0 2.083 2.216 2.083 6.25s-1.567 6.25-2.063 6.25a1.179 1.179 0 0 1-.421-.313 2.084 2.084 0 0 0-3.458.788c-2.642 7.775-8.055 13.55-14.534 15.462-.271.087-.542.171-.8.233-.388.092-.775.183-1.184.25a15.369 15.369 0 0 1-5.116 0Z" /></svg>
    <!-- Boat-1 -->
    <svg id="boat1" width="107.196" height="100"><path data-name="Path 2852" d="M14.298 96.425H8.936a1.788 1.788 0 0 0 0 3.575h5.362a1.788 1.788 0 0 0 0-3.575Z" /><path data-name="Path 2853" d="M98.294 96.425H21.446a1.788 1.788 0 0 0 0 3.575h76.847a1.788 1.788 0 0 0 0-3.575Z" /><path data-name="Path 2854" d="M105.443 89.279h-5.362a1.787 1.787 0 0 0 0 3.574h5.362a1.787 1.787 0 0 0 0-3.574Z" /><path data-name="Path 2855" d="M94.722 91.059a1.786 1.786 0 0 0-1.788-1.787h-9.126a32.262 32.262 0 0 0 21.637-30.383H67.234a3.564 3.564 0 0 0-3.36 2.377l-1.411 3.943-6.32-6.32 2.31-2.31a1.787 1.787 0 0 0-2.526-2.527l-8.039 8.047a1.787 1.787 0 0 0 2.527 2.526l3.2-3.2 7.514 7.514-1.312 3.666a3.546 3.546 0 0 1-3.361 2.377H28.595v-3.575a3.574 3.574 0 0 0-3.575-3.574H5.362a3.574 3.574 0 0 0-3.575 3.574v5.362a3.575 3.575 0 0 0 3.575 3.575h9.077a12.389 12.389 0 0 0 5.945 8.936H1.788a1.787 1.787 0 0 0 0 3.574h91.145a1.786 1.786 0 0 0 1.788-1.787Zm6.237-19.659H80.424a1.787 1.787 0 0 1 0-3.574h21.893a28.907 28.907 0 0 1-1.359 3.574Z" /><path data-name="Path 2856" d="M67.913 35.661a12.443 12.443 0 0 0 8.339-3.2 9.886 9.886 0 0 0 12.219-1.686A11.612 11.612 0 1 0 92.782 8.91C90.345-4.236 71.136-2.282 71.515 11.176a12.509 12.509 0 1 0-3.6 24.489Z" /><path data-name="Path 2857" d="M11.617 41.023a9.833 9.833 0 0 0 9.383-6.9c5.8 11.6 23.645 7.548 23.679-5.614a12.508 12.508 0 0 0-11.325-12.45c-4.493-12.234-22.675-7.663-20.675 5.362-13.681-.919-14.756 19.031-1.063 19.6Z" /></svg>
    <!-- Price Badge -->
    <svg id="price_badge" width="80.611" height="100"><path data-name="Path 2894" d="M19.954 77.712 9.479 97.563a1.662 1.662 0 0 0 1.46 2.437h23.293a1.674 1.674 0 0 0 1.46-.883l4.613-8.724 4.618 8.724a1.662 1.662 0 0 0 1.452.883h23.3a1.662 1.662 0 0 0 1.458-2.437L60.671 77.738c-.456.473-.908.924-1.438 1.462-1.545 1.585-3.344 3.493-6.3 4.37s-5.5.25-7.663-.242a34.046 34.046 0 0 0-4.9-.944 32.525 32.525 0 0 0-4.894.957c-2.16.5-4.712 1.133-7.669.269s-4.77-2.777-6.32-4.359c-.556-.57-1.038-1.054-1.525-1.54Z" /><path data-name="Path 2895" d="M40.276 9.403a30.574 30.574 0 1 1-21.605 8.959 30.49 30.49 0 0 1 21.605-8.959Zm-.04-9.4C36.773.01 32.953 3.58 29.629 4.564s-8.46.059-11.366 1.94-4.2 6.953-6.457 9.574-7.094 4.633-8.527 7.792.224 8.119-.263 11.547-3.46 7.742-2.964 11.168 4.574 6.711 6.014 9.863 1.264 8.388 3.534 11 7.471 3.172 10.385 5.04 5.586 6.363 8.912 7.333 7.993-1.369 11.456-1.377 8.14 2.327 11.456 1.344 5.983-5.487 8.893-7.361 8.1-2.451 10.364-5.079 2.068-7.851 3.5-11 5.5-6.449 5.987-9.883-2.5-7.725-3-11.16 1.138-8.4-.3-11.548-6.274-5.151-8.547-7.767-3.566-7.688-6.483-9.555-8.055-.938-11.381-1.907S43.694.002 40.231.002Z" /><path data-name="Path 2896" d="M49.982 42.945a6.679 6.679 0 1 1-4.817 1.954 6.668 6.668 0 0 1 4.817-1.954Zm-.093-16.384a2.67 2.67 0 0 1 1.879.781l1.151 1.159a2.657 2.657 0 0 1 0 3.761l-20.368 20.4a2.638 2.638 0 0 1-3.757 0l-1.158-1.155a2.657 2.657 0 0 1 0-3.761l20.368-20.411a2.682 2.682 0 0 1 1.885-.779Zm-19.12-2.857a6.68 6.68 0 1 1-4.814 1.954 6.657 6.657 0 0 1 4.814-1.954Zm9.509-10.369a26.645 26.645 0 1 0 18.833 7.811 26.612 26.612 0 0 0-18.833-7.811Z" /><path data-name="Path 2897" d="M49.917 47.207a2.418 2.418 0 0 0-1.74 4.128 2.417 2.417 0 1 0 1.74-4.128ZM30.711 27.964a2.425 2.425 0 1 0 1.676.714 2.437 2.437 0 0 0-1.676-.714Z" /></svg>
    <!-- Happy Client -->
    <svg id="client" width="78.881" height="100"><path data-name="Path 2848" d="m78.802 95.374-2.734-10.2a17.639 17.639 0 0 0-14.827-13.145l-6.414-.841-1.893-5.574a26.614 26.614 0 0 0 10.621-15.88c1.788-.946 4.732-3.365 4.732-9.464 0-4.417-.736-7.046-2.208-8.518a4.61 4.61 0 0 0-2.945-1.472 80.871 80.871 0 0 0 1.262-13.25c-.21-6.941-3.576-11.358-8.939-9.675-7.573-4.943-18.509-8.939-30.919-6.73.21.736.946 2.945 1.157 4.1a16.084 16.084 0 0 0-7.887-1.578 18.59 18.59 0 0 0-.316 10.831c-1.051 3.155-1.788 10.306-1.578 16.405a4.641 4.641 0 0 0-3.05 1.367c-1.578 1.472-2.313 4.206-2.313 8.623 0 6.1 2.945 8.518 4.732 9.464a26.931 26.931 0 0 0 10.623 15.879l-1.893 5.574-6.309.841A17.513 17.513 0 0 0 2.877 85.276l-2.734 10.2a3.569 3.569 0 0 0 3.47 4.522h71.719a3.538 3.538 0 0 0 2.839-1.367 4.591 4.591 0 0 0 .631-3.259ZM19.071 47.841a2.156 2.156 0 0 0-1.578-1.683c-.316-.1-2.839-.946-2.839-5.889 0-4.312.736-5.363 1.157-5.679a.522.522 0 0 0 .316-.1 23.544 23.544 0 0 0 .526 3.26 1.01 1.01 0 0 0 .946.736h1.687a.909.909 0 0 0 .946-1.051c-.21-2.734-.421-9.99 3.471-16.089 5.468 2.418 16.089 7.151 31.128.1 3.891 5.153 3.786 13.145 3.576 15.984a1.037 1.037 0 0 0 .946 1.051h1.367a.859.859 0 0 0 .946-.841c.1-.736.316-1.893.631-3.26.21 0 .526 0 .631.21.21.21 1.051 1.262 1.051 5.574 0 4.943-2.629 5.784-2.839 5.889a2.013 2.013 0 0 0-1.578 1.683c-2 10.411-10.411 17.982-20.3 17.982-9.674.1-18.192-7.467-20.19-17.877Zm20.4 22.189a22.754 22.754 0 0 0 9.885-2.313l1.893 5.468a19.878 19.878 0 0 1-23.556 0l1.893-5.469a23.578 23.578 0 0 0 9.886 2.313Z" /><path data-name="Path 2849" d="M28.536 37.639a.8.8 0 0 1 .21.526l-.316 2.629c-.1.526.421.841.946.631l2.313-1.051a.47.47 0 0 1 .526 0l2.313 1.051a.711.711 0 0 0 .946-.631l-.314-2.629c0-.21 0-.421.21-.526l1.788-1.893a.653.653 0 0 0-.316-1.051l-2.733-.526c-.21 0-.316-.1-.421-.316l-1.262-2.313a.687.687 0 0 0-1.157 0l-1.262 2.313c-.1.21-.21.316-.421.316l-2.524.526a.6.6 0 0 0-.316 1.051Z" /><path data-name="Path 2850" d="M43.575 37.639a.8.8 0 0 1 .21.526l-.316 2.629c-.1.526.421.841.946.631l2.313-1.051a.47.47 0 0 1 .526 0l2.313 1.051a.711.711 0 0 0 .946-.631l-.316-2.629c0-.21 0-.421.21-.526l1.788-1.893a.653.653 0 0 0-.316-1.051l-2.732-.526c-.21 0-.316-.1-.421-.316l-1.262-2.313a.687.687 0 0 0-1.157 0l-1.262 2.313c0 .211-.209.316-.42.316l-2.524.526a.6.6 0 0 0-.316 1.051Z" /><path data-name="Path 2851" d="M29.268 46.475a2.267 2.267 0 0 0-.526 1.788 10.811 10.811 0 0 0 21.453 0 2.267 2.267 0 0 0-.526-1.788 2.093 2.093 0 0 0-1.683-.736H30.955a2.481 2.481 0 0 0-1.682.736ZM47.04 50.26H31.691a7.146 7.146 0 0 1-.736-2.1h16.826a7.145 7.145 0 0 1-.736 2.1Z" /></svg>
    <!-- Like Badge -->
    <svg id="like_badge" width="100.005" height="100"><path data-name="Path 2845" d="m95.099 49.996 4.782-14.032a2.224 2.224 0 0 0-.844-2.562l-12.6-8.72-4.813-14.032a2.214 2.214 0 0 0-2.125-1.531H63.91L51.284.399a2.257 2.257 0 0 0-2.562 0l-12.626 8.72h-15.6a2.214 2.214 0 0 0-2.125 1.531l-4.813 14.032-12.6 8.72a2.223 2.223 0 0 0-.844 2.562l4.782 14.032L.114 64.028a2.225 2.225 0 0 0 .844 2.563l12.6 8.72 4.813 14.064a2.229 2.229 0 0 0 2.125 1.5h15.6l12.626 8.72a2.222 2.222 0 0 0 2.562 0l12.626-8.72h15.6a2.227 2.227 0 0 0 2.125-1.5l4.813-14.064 12.6-8.72a2.224 2.224 0 0 0 .844-2.563Zm-21.908 2.687-1.5 9.876a10.12 10.12 0 0 1-10.032 8.594 46.1 46.1 0 0 1-16.314-2.969l-2.313-.469v1.188a2.242 2.242 0 0 1-2.249 2.25H28.938a2.243 2.243 0 0 1-2.25-2.25V39.277a2.263 2.263 0 0 1 2.25-2.25h11.845a2.261 2.261 0 0 1 2.25 2.25v1.719h1.688l1.719-13.845a4.174 4.174 0 0 1 4.22-3.938 10.177 10.177 0 0 1 10.156 10.154v7.626h2.375a10.161 10.161 0 0 1 10 11.689Z" /><path data-name="Path 2846" d="m68.753 51.999-1.531 9.876a5.565 5.565 0 0 1-5.562 4.782 43.061 43.061 0 0 1-15.157-2.781l-3.469-.75V45.498h3.687a2.253 2.253 0 0 0 2.219-1.969l1.969-15.813a5.669 5.669 0 0 1 5.407 5.656v9.876a2.26 2.26 0 0 0 2.25 2.25h4.625a5.669 5.669 0 0 1 5.562 6.5Z" /><path data-name="Path 2847" d="M31.188 41.529h7.344v25.128h-7.344Z" /></svg>
    <!-- Exclamation -->
    <svg id="exclamation" width="31.999" height="32"><path d="M22.118 1.219A16 16 0 0 0 2.482 24.568a2.257 2.257 0 0 1-.035 2.757L.524 29.28a1.6 1.6 0 0 0 1.141 2.722h14.33a16 16 0 0 0 6.123-30.783Zm-6.123 6.782a1.6 1.6 0 0 1 1.6 1.6v8a1.6 1.6 0 0 1-3.2 0v-8A1.6 1.6 0 0 1 15.999 8Zm0 16a1.6 1.6 0 1 0-1.6-1.6A1.6 1.6 0 0 0 15.999 24Z" fill-rule="evenodd" /></svg>
    <!-- Check -->
    <svg id="check" width="64" height="64"><path data-name="Union 1" d="M0 32A32.036 32.036 0 0 1 32 0a2.412 2.412 0 0 1 2.412 2.412A2.412 2.412 0 0 1 32 4.824 27.207 27.207 0 0 0 4.824 32 27.207 27.207 0 0 0 32 59.176 27.206 27.206 0 0 0 59.176 32a2.412 2.412 0 0 1 2.412-2.413A2.412 2.412 0 0 1 64 32a32.037 32.037 0 0 1-32 32A32.037 32.037 0 0 1 0 32Zm29.7 11.5a2.41 2.41 0 0 1-1.724-.778L15.835 29.537a2.412 2.412 0 0 1 .141-3.408 2.413 2.413 0 0 1 3.408.141l10.44 11.339 28.937-28.86a2.41 2.41 0 0 1 3.41 0 2.411 2.411 0 0 1 0 3.412L31.459 42.793a2.416 2.416 0 0 1-1.7.7Z" fill="#6ab04c" /></svg>
    <!-- Map -->
    <svg id="map" width="64" height="64"><path d="M52.54 39.468h-7.492l3.188-4.693c6.021-8.182 5.15-21.633-1.865-28.783a19.791 19.791 0 0 0-28.374 0c-7.013 7.149-7.885 20.6-1.888 28.749l3.21 4.726h-7.861L-.001 64h64ZM32.37 12.801a7.468 7.468 0 1 1-7.324 7.467 7.406 7.406 0 0 1 7.324-7.467Zm-19.589 28.8h7.987l11.416 16.808 11.415-16.808h7.618l9.466 20.267H3.313Z" fill-rule="evenodd" /></svg>
    <!-- Mobile -->
    <svg id="mobile" width="48.516" height="64"><defs><clipPath id="a"><path data-name="Path 2862" d="M242 170h42.7v59.839H242Z" transform="translate(-242 -170)" /></clipPath><clipPath id="b"><path data-name="Path 2864" d="M199 139.21h22.433v22.4H199Z" transform="translate(-199 -139.21)" /></clipPath></defs><g data-name="Group 1145" transform="translate(5.811 4.161)" clip-path="url(#a)"><path data-name="Path 2861" d="M42.642 27.57a3.492 3.492 0 0 0-1.029-2.484l-.593-.594a4.792 4.792 0 0 0-3.177-8.386 4.732 4.732 0 0 0-.576.042 4.739 4.739 0 0 0 .042-.576 4.805 4.805 0 0 0-4.8-4.8 4.75 4.75 0 0 0-.576.042 4.625 4.625 0 0 0 .043-.576 4.805 4.805 0 0 0-4.8-4.8 4.749 4.749 0 0 0-.576.042 4.625 4.625 0 0 0 .043-.576 4.792 4.792 0 0 0-8.391-3.177l-.131-.13-18.1 18.1 4.521 4.521a4.771 4.771 0 0 0-.277 8.152l.235.256 11.473 11.428v1.916h-2.131v13.867h27.734V45.973h-2.133v-3.231a9.023 9.023 0 0 0 1.562-12.077l.609-.61a3.492 3.492 0 0 0 1.029-2.484Zm-17.067 3.469a4.267 4.267 0 1 1 4.266 4.267 4.271 4.271 0 0 1-4.266-4.267Zm14.933-10.133a2.666 2.666 0 0 1-1 2.077l-3.744-3.744a2.663 2.663 0 0 1 4.743 1.667Zm-5.333-5.333a2.661 2.661 0 0 1-1 2.077l-3.744-3.744a2.664 2.664 0 0 1 4.744 1.667Zm-5.333-5.333a2.662 2.662 0 0 1-1 2.077l-3.745-3.744a2.664 2.664 0 0 1 4.744 1.667Zm-8-8a2.663 2.663 0 0 1 1.667 4.743l-3.744-3.744a2.665 2.665 0 0 1 2.077-1ZM6.333 25.772l.442-.05.132-.016h10.667a2.667 2.667 0 1 1 0 5.333H6.908a2.665 2.665 0 0 1-.575-5.267ZM25.041 56.64a3.733 3.733 0 1 1 3.733-3.733 3.738 3.738 0 0 1-3.733 3.732Zm14.4 1.066h-6.4v-3.654a8.052 8.052 0 0 0-2.628-5.946h9.029Zm.026-25.505a6.9 6.9 0 0 1-1.735 9.177l-.425.319v4.277h-19.2v-2.9l-.375-.319-.192-.148-9.469-9.434h5.424L23.51 43.189a3.516 3.516 0 0 0 4.97 0Z" fill-rule="evenodd" /></g><g data-name="Group 1146" clip-path="url(#b)"><path data-name="Path 2863" d="M19.205 1.03a3.6 3.6 0 0 0-4.969 0L1.105 14.163a3.521 3.521 0 0 0 0 4.97l3.222 3.221 18.1-18.1Zm-6.266 9.325-2.133 2.133a1.066 1.066 0 0 1-1.508-1.508l2.133-2.133a1.066 1.066 0 1 1 1.508 1.508Z" fill-rule="evenodd" /></g></svg>
    <!-- Message -->
    <svg id="message" width="64" height="64"><defs><clipPath id="a"><path data-name="Path 2866" d="M392 356h29.838v32.974H392Z" transform="translate(-392 -356)" /></clipPath><clipPath id="b"><path data-name="Path 2868" d="M145 139.21h62.3v44.7H145Z" transform="translate(-145 -139.21)" /></clipPath><clipPath id="c"><path data-name="Path 2870" d="M139.21 357h62.812v34.568H139.21Z" transform="translate(-139.21 -357)" /></clipPath></defs><g data-name="Group 1165"><g data-name="Group 1164"><g data-name="Group 1147" transform="translate(34.162 29.297)" clip-path="url(#a)"><path data-name="Path 2865" d="m.038 16.564 29.8 16.391V.084l-29.8 16.48" fill-rule="evenodd" /></g><g data-name="Group 1148" transform="translate(.782)" clip-path="url(#b)"><path data-name="Path 2867" d="m31.205 44.644.011-.005L7.75 31.7v-.026l23.466 12.938 25.6-14.114v-.016l5.462-3.021-5.462-5.084V7.463h-14.3l-8.593-6.4a4.079 4.079 0 0 0-5.424 0l-8.592 6.4h-14.3v14.91l-5.533 5.15ZM7.75 9.601h46.933v19.636l-23.467 12.94L7.75 29.237Z" fill-rule="evenodd" /></g><g data-name="Group 1149" transform="translate(0 29.432)" clip-path="url(#c)"><path data-name="Path 2869" d="M0 34.571h62.758L0 .051v34.52" fill-rule="evenodd" /></g><path data-name="Path 2871" d="M28.8 14.933h6.4a1.067 1.067 0 1 0 0-2.134h-6.4a1.067 1.067 0 1 0 0 2.134" fill-rule="evenodd" /><path data-name="Path 2872" d="M44.8 28.8h-7.467a1.067 1.067 0 0 0 0 2.133H44.8a1.067 1.067 0 0 0 0-2.133" fill-rule="evenodd" /><path data-name="Path 2873" d="M18.133 22.399h5.334a1.067 1.067 0 1 0 0-2.133h-5.333a1.067 1.067 0 0 0 0 2.133" fill-rule="evenodd" /><path data-name="Path 2874" d="M30.934 21.334A1.066 1.066 0 0 0 32 22.401h8.533a1.067 1.067 0 1 0 0-2.133H32a1.065 1.065 0 0 0-1.066 1.066" fill-rule="evenodd" /><path data-name="Path 2875" d="M27.731 22.399a1.056 1.056 0 0 0 1.067-1.067 1.1 1.1 0 0 0-.309-.757 1.117 1.117 0 0 0-1.515 0 1.1 1.1 0 0 0-.309.757 1.056 1.056 0 0 0 1.067 1.067" fill-rule="evenodd" /><path data-name="Path 2876" d="M33.068 28.8H22.4a1.067 1.067 0 1 0 0 2.133h10.668a1.067 1.067 0 1 0 0-2.133" fill-rule="evenodd" /><path data-name="Path 2877" d="M18.133 30.933a1.069 1.069 0 1 0-.757-1.824 1.076 1.076 0 0 0-.309.757 1.1 1.1 0 0 0 .309.758 1.056 1.056 0 0 0 .757.309" fill-rule="evenodd" /><path data-name="Path 2878" d="M44.8 22.399a1.069 1.069 0 1 0-.758-1.824 1.094 1.094 0 0 0-.309.757 1.056 1.056 0 0 0 1.067 1.067" fill-rule="evenodd" /></g></g></svg>

</svg>